<svg width="591" height="157" viewBox="0 0 591 157" fill="none" xmlns="http://www.w3.org/2000/svg">
<path d="M3.25541 34.0296C3.25541 14.0367 18.4881 0.708019 49.9056 0.708019C74.8492 0.708019 97.3175 10.0381 97.3175 27.7461C97.3175 38.0282 89.8915 45.6446 79.6094 45.6446C69.3273 45.6446 61.711 38.0282 61.711 27.7461C66.2808 23.9379 68.1849 18.9873 68.1849 14.0367C68.1849 8.51479 62.4726 2.61212 49.9056 2.61212C37.529 2.61212 29.5319 8.51479 29.5319 17.6544C29.5319 44.6925 100.364 50.976 100.364 87.9154C100.364 107.908 82.0848 121.047 50.2864 121.047C23.4388 121.047 0.970497 111.717 0.970497 94.0085C0.970497 83.7264 8.39645 76.11 18.6785 76.11C28.9606 76.11 36.577 83.7264 36.577 94.0085C32.0072 97.8166 30.4839 100.863 30.4839 105.814C30.4839 111.717 35.0537 119.142 50.2864 119.142C64.7575 119.142 74.278 113.24 74.278 104.1C74.278 77.0621 3.25541 70.969 3.25541 34.0296ZM176.145 72.3018C176.145 48.5007 168.529 29.079 159.199 29.079C150.631 29.079 143.776 44.8829 143.776 64.3046V80.299C143.776 99.7207 150.631 115.525 159.199 115.525C168.529 115.525 176.145 96.103 176.145 72.3018ZM106.836 156.082C106.456 156.082 106.075 155.701 106.075 155.32V154.559C111.025 152.274 112.93 146.181 112.93 138.564V44.1213C112.93 36.5049 111.025 30.4118 106.075 28.1269V27.3653C106.075 26.9845 106.456 26.6037 106.836 26.6037H143.776V48.1199C144.918 42.598 146.822 38.0282 149.298 34.22C153.867 27.1749 162.245 23.5571 170.052 23.5571C190.807 23.5571 207.753 45.4542 207.753 72.3018C207.753 99.1495 190.807 121.047 170.052 121.047C162.245 121.047 153.867 117.429 149.298 110.384C146.822 106.575 144.918 102.006 143.776 96.4838V138.564C143.776 146.181 145.68 152.274 150.631 154.559V155.32C150.631 155.701 150.25 156.082 149.869 156.082H106.836ZM297.354 107.147C297.354 111.336 299.258 114.001 302.114 114.001C303.828 114.001 305.161 113.43 307.065 111.717L307.827 112.859C303.066 117.619 296.783 121.047 288.976 121.047C274.695 121.047 266.508 112.478 266.508 97.8166V91.7235C262.7 104.671 254.322 121.047 235.09 121.047C221 121.047 210.718 111.336 210.718 97.8166C210.718 63.7334 266.508 80.4894 266.508 46.9774C266.508 37.457 261.367 25.0804 252.227 25.0804C248.038 25.0804 245.182 28.5077 245.182 33.8392C245.182 38.409 247.848 44.6925 252.418 48.1199C252.418 57.4499 245.563 64.3046 236.233 64.3046C226.903 64.3046 220.048 57.4499 220.048 48.1199C220.048 31.9351 238.137 23.5571 255.654 23.5571C281.55 23.5571 297.354 38.7898 297.354 58.9732V107.147ZM241.945 103.339C241.945 109.051 244.801 113.049 248.8 113.049C257.368 113.049 266.508 95.1509 266.508 80.299V55.165C260.605 76.4908 241.945 86.9633 241.945 103.339ZM317.656 44.1213C317.656 36.5049 315.752 30.4118 310.802 28.1269V27.3653C310.802 26.9845 311.183 26.6037 311.563 26.6037H348.503V58.9732C354.405 40.1227 361.451 23.5571 380.301 23.5571C389.631 23.5571 396.486 30.4118 396.486 39.7419C396.486 49.0719 389.631 55.9267 380.301 55.9267C376.874 51.3568 372.494 48.6911 366.02 48.6911C355.738 48.6911 348.503 55.7362 348.503 67.3512V100.482C348.503 108.099 350.407 114.192 355.357 116.477V117.238C355.357 117.619 354.977 118 354.596 118H311.563C311.183 118 310.802 117.619 310.802 117.238V116.477C315.752 114.192 317.656 108.099 317.656 100.482V44.1213ZM406.167 21.2722C406.167 13.6558 404.263 7.56275 399.312 5.27785V4.51621C399.312 4.13538 399.693 3.75457 400.074 3.75457H437.013V69.8265C453.198 69.8265 459.291 57.8307 459.291 52.4993C459.291 47.9295 456.625 43.1692 452.055 39.7419C452.055 30.4118 458.91 23.5571 468.24 23.5571C477.57 23.5571 484.425 30.4118 484.425 39.7419C484.425 49.8336 476.428 57.8307 466.146 63.3526L485.948 99.5303C490.328 107.528 497.563 113.43 501.562 116.096V117.048C501.562 117.619 501.181 118 500.991 118H476.618C467.669 118 460.053 113.43 455.673 105.623L437.013 71.3498V100.482C437.013 108.099 438.917 114.192 443.868 116.477V117.238C443.868 117.619 443.487 118 443.106 118H400.074C399.693 118 399.312 117.619 399.312 117.238V116.477C404.263 114.192 406.167 108.099 406.167 100.482V21.2722ZM511.227 44.1213C511.227 36.5049 509.322 30.4118 504.372 28.1269V27.3653C504.372 26.9845 504.753 26.6037 505.133 26.6037H542.073V58.9732C547.976 40.1227 555.021 23.5571 573.871 23.5571C583.201 23.5571 590.056 30.4118 590.056 39.7419C590.056 49.0719 583.201 55.9267 573.871 55.9267C570.444 51.3568 566.064 48.6911 559.59 48.6911C549.308 48.6911 542.073 55.7362 542.073 67.3512V100.482C542.073 108.099 543.977 114.192 548.928 116.477V117.238C548.928 117.619 548.547 118 548.166 118H505.133C504.753 118 504.372 117.619 504.372 117.238V116.477C509.322 114.192 511.227 108.099 511.227 100.482V44.1213Z" fill="white"/>
</svg>
